Coordinates
version=1
nRows=6
nColumns=36
inDegrees=yes

Units are S.I. units (second, meters, Newtons, ...)
If the header above contains a line with 'inDegrees', this indicates whether rotational values are in degrees (yes) or radians (no).

endheader
time	pelvis_tilt	pelvis_list	pelvis_rotation	pelvis_tx	pelvis_ty	pelvis_tz	hip_flexion_r	hip_adduction_r	hip_rotation_r	knee_angle_r	knee_angle_r_beta	ankle_angle_r	subtalar_angle_r	mtp_angle_r	hip_flexion_l	hip_adduction_l	hip_rotation_l	knee_angle_l	knee_angle_l_beta	ankle_angle_l	subtalar_angle_l	mtp_angle_l	lumbar_extension	lumbar_bending	lumbar_rotation	arm_flex_r	arm_add_r	arm_rot_r	elbow_flex_r	pro_sup_r	arm_flex_l	arm_add_l	arm_rot_l	elbow_flex_l	pro_sup_l
      2.62083330	    -13.48330635	      1.68405425	      3.80324189	      0.24861078	      1.22730232	     -0.09090085	     14.60405578	     -9.43046963	     -8.32487425	      3.12853362	      0.05460321	    -43.63104101	      1.99957299	     -7.49999987	     19.04279057	     -7.14593828	     -5.47395305	      5.54642803	      0.09680343	    -43.51229081	     -3.29406213	     -7.49999987	      4.70813398	     -5.35952509	      1.50687013	    117.61802679	    -49.85941554	     73.89803494	     82.77613377	     73.09490869	    123.74544742	    -23.22027249	    106.35840485	     56.12117459	     58.96787546
      2.62500000	    -13.17736436	      1.96861852	      3.76102976	      0.25302746	      1.23399070	     -0.08672039	     14.20407547	     -9.68566186	     -8.08033663	      3.02336702	      0.05276771	    -43.65956806	      2.11649281	     -7.49999987	     18.61535614	     -6.91332871	     -5.37525227	      5.32473292	      0.09293412	    -43.75165096	     -3.34794711	     -7.49999987	      4.47400696	     -5.78688624	      1.69041778	    116.49849692	    -52.74706603	     73.44331928	     85.97226233	     73.49418054	    122.73418253	    -24.32718352	    107.05620636	     56.29258098	     58.81490181
      2.62916670	    -13.13609857	      1.94793688	      3.77089528	      0.25302671	      1.23837789	     -0.08679331	     14.24215512	     -9.65824496	     -7.90474685	      3.15394483	      0.05504672	    -43.76402749	      1.86522851	     -7.49999987	     18.73365836	     -6.94670381	     -5.64791618	      5.44394098	      0.09501469	    -44.03020464	     -3.60421093	     -7.49999987	      4.53154779	     -5.88676861	      2.04232571	    115.27326673	    -55.35600945	     73.05878367	     88.57593995	     73.56297647	    121.54207224	    -24.31084417	    108.18058066	     55.14133257	     58.69561900
      2.63333330	    -12.99807190	      2.08941018	      3.77741364	      0.25730042	      1.24254233	     -0.08264761	     13.93710492	     -9.71929190	     -7.72494013	      2.84196533	      0.04960165	    -43.40536532	      1.53503602	     -7.49999987	     18.58928204	     -7.02321930	     -6.06868216	      5.29413527	      0.09240009	    -44.33528987	     -4.01308407	     -7.49999987	      4.71885799	     -6.31059587	      2.17719713	    113.02583748	    -57.09035927	     71.70146871	     90.45450642	     73.80705458	    119.70726062	    -24.76909222	    107.14438184	     54.63025981	     58.33589500
      2.63750000	    -12.77334343	      2.18657690	      3.80140915	      0.26104898	      1.24702632	     -0.08733305	     13.44647090	     -9.91026791	     -8.27423613	      2.64157553	      0.04610419	    -42.31289227	      0.78715508	     -7.49999987	     18.30562981	     -6.93680108	     -6.52919827	      5.22926531	      0.09126790	    -43.63708998	     -4.22036067	     -7.49999987	      4.93097605	     -6.22702597	      2.11011106	    112.12415468	    -57.95648738	     72.12691551	     90.85516758	     73.86379209	    118.20356916	    -25.59588894	    107.60075614	     54.68838189	     58.35357166
      2.64166670	    -12.93184302	      2.35230299	      3.75941619	      0.26109002	      1.25578217	     -0.08739735	     13.41603526	    -10.26515642	     -8.81962561	      2.14229702	      0.03739014	    -41.46078582	      0.78680149	     -7.49999987	     18.19472600	     -6.77332515	     -7.54862227	      4.67352878	      0.08156846	    -42.74721374	     -3.44004831	     -7.49999987	      5.53192652	     -6.38124933	      2.98091734	    109.77534354	    -60.27398380	     70.91127869	     92.76443539	     74.34877153	    115.00314123	    -25.17512572	    105.49052016	     52.86502373	     58.22752623
